<?xml version="1.0" encoding="utf-8" standalone="no"?>
<!DOCTYPE svg PUBLIC "-//W3C//DTD SVG 1.1//EN"
  "http://www.w3.org/Graphics/SVG/1.1/DTD/svg11.dtd">
<svg xmlns:xlink="http://www.w3.org/1999/xlink" width="460.8pt" height="345.6pt" viewBox="0 0 460.8 345.6" xmlns="http://www.w3.org/2000/svg" version="1.1">
 <metadata>
  <rdf:RDF xmlns:dc="http://purl.org/dc/elements/1.1/" xmlns:cc="http://creativecommons.org/ns#" xmlns:rdf="http://www.w3.org/1999/02/22-rdf-syntax-ns#">
   <cc:Work>
    <dc:type rdf:resource="http://purl.org/dc/dcmitype/StillImage"/>
    <dc:date>2022-03-11T11:12:43.198271</dc:date>
    <dc:format>image/svg+xml</dc:format>
    <dc:creator>
     <cc:Agent>
      <dc:title>Matplotlib v3.5.1, https://matplotlib.org/</dc:title>
     </cc:Agent>
    </dc:creator>
   </cc:Work>
  </rdf:RDF>
 </metadata>
 <defs>
  <style type="text/css">*{stroke-linejoin: round; stroke-linecap: butt}</style>
 </defs>
 <g id="figure_1">
  <g id="patch_1">
   <path d="M 0 345.6 
L 460.8 345.6 
L 460.8 0 
L 0 0 
z
" style="fill: #ffffff"/>
  </g>
  <g id="axes_1">
   <g id="patch_2">
    <path d="M 57.6 307.584 
L 414.72 307.584 
L 414.72 41.472 
L 57.6 41.472 
z
" style="fill: #ffffff"/>
   </g>
   <g id="matplotlib.axis_1">
    <g id="xtick_1">
     <g id="line2d_1">
      <path d="M 73.832727 307.584 
L 73.832727 41.472 
" clip-path="url(#pf197b511be)" style="fill: none; stroke: #b0b0b0; stroke-width: 0.8; stroke-linecap: square"/>
     </g>
     <g id="line2d_2">
      <defs>
       <path id="m8fa0216ff9" d="M 0 0 
L 0 3.5 
" style="stroke: #000000; stroke-width: 0.8"/>
      </defs>
      <g>
       <use xlink:href="#m8fa0216ff9" x="73.832727" y="307.584" style="stroke: #000000; stroke-width: 0.8"/>
      </g>
     </g>
     <g id="text_1">
      <!-- 0 -->
      <g transform="translate(70.651477 322.182437)scale(0.1 -0.1)">
       <defs>
        <path id="DejaVuSans-30" d="M 2034 4250 
Q 1547 4250 1301 3770 
Q 1056 3291 1056 2328 
Q 1056 1369 1301 889 
Q 1547 409 2034 409 
Q 2525 409 2770 889 
Q 3016 1369 3016 2328 
Q 3016 3291 2770 3770 
Q 2525 4250 2034 4250 
z
M 2034 4750 
Q 2819 4750 3233 4129 
Q 3647 3509 3647 2328 
Q 3647 1150 3233 529 
Q 2819 -91 2034 -91 
Q 1250 -91 836 529 
Q 422 1150 422 2328 
Q 422 3509 836 4129 
Q 1250 4750 2034 4750 
z
" transform="scale(0.015625)"/>
       </defs>
       <use xlink:href="#DejaVuSans-30"/>
      </g>
     </g>
    </g>
    <g id="xtick_2">
     <g id="line2d_3">
      <path d="M 114.414545 307.584 
L 114.414545 41.472 
" clip-path="url(#pf197b511be)" style="fill: none; stroke: #b0b0b0; stroke-width: 0.8; stroke-linecap: square"/>
     </g>
     <g id="line2d_4">
      <g>
       <use xlink:href="#m8fa0216ff9" x="114.414545" y="307.584" style="stroke: #000000; stroke-width: 0.8"/>
      </g>
     </g>
     <g id="text_2">
      <!-- 5 -->
      <g transform="translate(111.233295 322.182437)scale(0.1 -0.1)">
       <defs>
        <path id="DejaVuSans-35" d="M 691 4666 
L 3169 4666 
L 3169 4134 
L 1269 4134 
L 1269 2991 
Q 1406 3038 1543 3061 
Q 1681 3084 1819 3084 
Q 2600 3084 3056 2656 
Q 3513 2228 3513 1497 
Q 3513 744 3044 326 
Q 2575 -91 1722 -91 
Q 1428 -91 1123 -41 
Q 819 9 494 109 
L 494 744 
Q 775 591 1075 516 
Q 1375 441 1709 441 
Q 2250 441 2565 725 
Q 2881 1009 2881 1497 
Q 2881 1984 2565 2268 
Q 2250 2553 1709 2553 
Q 1456 2553 1204 2497 
Q 953 2441 691 2322 
L 691 4666 
z
" transform="scale(0.015625)"/>
       </defs>
       <use xlink:href="#DejaVuSans-35"/>
      </g>
     </g>
    </g>
    <g id="xtick_3">
     <g id="line2d_5">
      <path d="M 154.996364 307.584 
L 154.996364 41.472 
" clip-path="url(#pf197b511be)" style="fill: none; stroke: #b0b0b0; stroke-width: 0.8; stroke-linecap: square"/>
     </g>
     <g id="line2d_6">
      <g>
       <use xlink:href="#m8fa0216ff9" x="154.996364" y="307.584" style="stroke: #000000; stroke-width: 0.8"/>
      </g>
     </g>
     <g id="text_3">
      <!-- 10 -->
      <g transform="translate(148.633864 322.182437)scale(0.1 -0.1)">
       <defs>
        <path id="DejaVuSans-31" d="M 794 531 
L 1825 531 
L 1825 4091 
L 703 3866 
L 703 4441 
L 1819 4666 
L 2450 4666 
L 2450 531 
L 3481 531 
L 3481 0 
L 794 0 
L 794 531 
z
" transform="scale(0.015625)"/>
       </defs>
       <use xlink:href="#DejaVuSans-31"/>
       <use xlink:href="#DejaVuSans-30" x="63.623047"/>
      </g>
     </g>
    </g>
    <g id="xtick_4">
     <g id="line2d_7">
      <path d="M 195.578182 307.584 
L 195.578182 41.472 
" clip-path="url(#pf197b511be)" style="fill: none; stroke: #b0b0b0; stroke-width: 0.8; stroke-linecap: square"/>
     </g>
     <g id="line2d_8">
      <g>
       <use xlink:href="#m8fa0216ff9" x="195.578182" y="307.584" style="stroke: #000000; stroke-width: 0.8"/>
      </g>
     </g>
     <g id="text_4">
      <!-- 15 -->
      <g transform="translate(189.215682 322.182437)scale(0.1 -0.1)">
       <use xlink:href="#DejaVuSans-31"/>
       <use xlink:href="#DejaVuSans-35" x="63.623047"/>
      </g>
     </g>
    </g>
    <g id="xtick_5">
     <g id="line2d_9">
      <path d="M 236.16 307.584 
L 236.16 41.472 
" clip-path="url(#pf197b511be)" style="fill: none; stroke: #b0b0b0; stroke-width: 0.8; stroke-linecap: square"/>
     </g>
     <g id="line2d_10">
      <g>
       <use xlink:href="#m8fa0216ff9" x="236.16" y="307.584" style="stroke: #000000; stroke-width: 0.8"/>
      </g>
     </g>
     <g id="text_5">
      <!-- 20 -->
      <g transform="translate(229.7975 322.182437)scale(0.1 -0.1)">
       <defs>
        <path id="DejaVuSans-32" d="M 1228 531 
L 3431 531 
L 3431 0 
L 469 0 
L 469 531 
Q 828 903 1448 1529 
Q 2069 2156 2228 2338 
Q 2531 2678 2651 2914 
Q 2772 3150 2772 3378 
Q 2772 3750 2511 3984 
Q 2250 4219 1831 4219 
Q 1534 4219 1204 4116 
Q 875 4013 500 3803 
L 500 4441 
Q 881 4594 1212 4672 
Q 1544 4750 1819 4750 
Q 2544 4750 2975 4387 
Q 3406 4025 3406 3419 
Q 3406 3131 3298 2873 
Q 3191 2616 2906 2266 
Q 2828 2175 2409 1742 
Q 1991 1309 1228 531 
z
" transform="scale(0.015625)"/>
       </defs>
       <use xlink:href="#DejaVuSans-32"/>
       <use xlink:href="#DejaVuSans-30" x="63.623047"/>
      </g>
     </g>
    </g>
    <g id="xtick_6">
     <g id="line2d_11">
      <path d="M 276.741818 307.584 
L 276.741818 41.472 
" clip-path="url(#pf197b511be)" style="fill: none; stroke: #b0b0b0; stroke-width: 0.8; stroke-linecap: square"/>
     </g>
     <g id="line2d_12">
      <g>
       <use xlink:href="#m8fa0216ff9" x="276.741818" y="307.584" style="stroke: #000000; stroke-width: 0.8"/>
      </g>
     </g>
     <g id="text_6">
      <!-- 25 -->
      <g transform="translate(270.379318 322.182437)scale(0.1 -0.1)">
       <use xlink:href="#DejaVuSans-32"/>
       <use xlink:href="#DejaVuSans-35" x="63.623047"/>
      </g>
     </g>
    </g>
    <g id="xtick_7">
     <g id="line2d_13">
      <path d="M 317.323636 307.584 
L 317.323636 41.472 
" clip-path="url(#pf197b511be)" style="fill: none; stroke: #b0b0b0; stroke-width: 0.8; stroke-linecap: square"/>
     </g>
     <g id="line2d_14">
      <g>
       <use xlink:href="#m8fa0216ff9" x="317.323636" y="307.584" style="stroke: #000000; stroke-width: 0.8"/>
      </g>
     </g>
     <g id="text_7">
      <!-- 30 -->
      <g transform="translate(310.961136 322.182437)scale(0.1 -0.1)">
       <defs>
        <path id="DejaVuSans-33" d="M 2597 2516 
Q 3050 2419 3304 2112 
Q 3559 1806 3559 1356 
Q 3559 666 3084 287 
Q 2609 -91 1734 -91 
Q 1441 -91 1130 -33 
Q 819 25 488 141 
L 488 750 
Q 750 597 1062 519 
Q 1375 441 1716 441 
Q 2309 441 2620 675 
Q 2931 909 2931 1356 
Q 2931 1769 2642 2001 
Q 2353 2234 1838 2234 
L 1294 2234 
L 1294 2753 
L 1863 2753 
Q 2328 2753 2575 2939 
Q 2822 3125 2822 3475 
Q 2822 3834 2567 4026 
Q 2313 4219 1838 4219 
Q 1578 4219 1281 4162 
Q 984 4106 628 3988 
L 628 4550 
Q 988 4650 1302 4700 
Q 1616 4750 1894 4750 
Q 2613 4750 3031 4423 
Q 3450 4097 3450 3541 
Q 3450 3153 3228 2886 
Q 3006 2619 2597 2516 
z
" transform="scale(0.015625)"/>
       </defs>
       <use xlink:href="#DejaVuSans-33"/>
       <use xlink:href="#DejaVuSans-30" x="63.623047"/>
      </g>
     </g>
    </g>
    <g id="xtick_8">
     <g id="line2d_15">
      <path d="M 357.905455 307.584 
L 357.905455 41.472 
" clip-path="url(#pf197b511be)" style="fill: none; stroke: #b0b0b0; stroke-width: 0.8; stroke-linecap: square"/>
     </g>
     <g id="line2d_16">
      <g>
       <use xlink:href="#m8fa0216ff9" x="357.905455" y="307.584" style="stroke: #000000; stroke-width: 0.8"/>
      </g>
     </g>
     <g id="text_8">
      <!-- 35 -->
      <g transform="translate(351.542955 322.182437)scale(0.1 -0.1)">
       <use xlink:href="#DejaVuSans-33"/>
       <use xlink:href="#DejaVuSans-35" x="63.623047"/>
      </g>
     </g>
    </g>
    <g id="xtick_9">
     <g id="line2d_17">
      <path d="M 398.487273 307.584 
L 398.487273 41.472 
" clip-path="url(#pf197b511be)" style="fill: none; stroke: #b0b0b0; stroke-width: 0.8; stroke-linecap: square"/>
     </g>
     <g id="line2d_18">
      <g>
       <use xlink:href="#m8fa0216ff9" x="398.487273" y="307.584" style="stroke: #000000; stroke-width: 0.8"/>
      </g>
     </g>
     <g id="text_9">
      <!-- 40 -->
      <g transform="translate(392.124773 322.182437)scale(0.1 -0.1)">
       <defs>
        <path id="DejaVuSans-34" d="M 2419 4116 
L 825 1625 
L 2419 1625 
L 2419 4116 
z
M 2253 4666 
L 3047 4666 
L 3047 1625 
L 3713 1625 
L 3713 1100 
L 3047 1100 
L 3047 0 
L 2419 0 
L 2419 1100 
L 313 1100 
L 313 1709 
L 2253 4666 
z
" transform="scale(0.015625)"/>
       </defs>
       <use xlink:href="#DejaVuSans-34"/>
       <use xlink:href="#DejaVuSans-30" x="63.623047"/>
      </g>
     </g>
    </g>
    <g id="text_10">
     <!-- $2\theta$ -->
     <g transform="translate(229.91 335.860562)scale(0.1 -0.1)">
      <defs>
       <path id="DejaVuSans-Oblique-3b8" d="M 2913 2219 
L 925 2219 
Q 791 1284 928 888 
Q 1100 400 1566 400 
Q 2034 400 2391 891 
Q 2703 1322 2913 2219 
z
M 3009 2750 
Q 3094 3638 2984 3950 
Q 2813 4444 2353 4444 
Q 1875 4444 1525 3956 
Q 1250 3563 1034 2750 
L 3009 2750 
z
M 2444 4913 
Q 3194 4913 3494 4250 
Q 3794 3591 3566 2422 
Q 3341 1256 2781 594 
Q 2225 -72 1475 -72 
Q 722 -72 425 594 
Q 128 1256 353 2422 
Q 581 3591 1134 4250 
Q 1691 4913 2444 4913 
z
" transform="scale(0.015625)"/>
      </defs>
      <use xlink:href="#DejaVuSans-32" transform="translate(0 0.234375)"/>
      <use xlink:href="#DejaVuSans-Oblique-3b8" transform="translate(63.623047 0.234375)"/>
     </g>
    </g>
   </g>
   <g id="matplotlib.axis_2">
    <g id="ytick_1">
     <g id="line2d_19">
      <path d="M 57.6 295.488 
L 414.72 295.488 
" clip-path="url(#pf197b511be)" style="fill: none; stroke: #b0b0b0; stroke-width: 0.8; stroke-linecap: square"/>
     </g>
     <g id="line2d_20">
      <defs>
       <path id="mc24b60188d" d="M 0 0 
L -3.5 0 
" style="stroke: #000000; stroke-width: 0.8"/>
      </defs>
      <g>
       <use xlink:href="#mc24b60188d" x="57.6" y="295.488" style="stroke: #000000; stroke-width: 0.8"/>
      </g>
     </g>
     <g id="text_11">
      <!-- 0 -->
      <g transform="translate(44.2375 299.287219)scale(0.1 -0.1)">
       <use xlink:href="#DejaVuSans-30"/>
      </g>
     </g>
    </g>
    <g id="ytick_2">
     <g id="line2d_21">
      <path d="M 57.6 253.992288 
L 414.72 253.992288 
" clip-path="url(#pf197b511be)" style="fill: none; stroke: #b0b0b0; stroke-width: 0.8; stroke-linecap: square"/>
     </g>
     <g id="line2d_22">
      <g>
       <use xlink:href="#mc24b60188d" x="57.6" y="253.992288" style="stroke: #000000; stroke-width: 0.8"/>
      </g>
     </g>
     <g id="text_12">
      <!-- 100 -->
      <g transform="translate(31.5125 257.791507)scale(0.1 -0.1)">
       <use xlink:href="#DejaVuSans-31"/>
       <use xlink:href="#DejaVuSans-30" x="63.623047"/>
       <use xlink:href="#DejaVuSans-30" x="127.246094"/>
      </g>
     </g>
    </g>
    <g id="ytick_3">
     <g id="line2d_23">
      <path d="M 57.6 212.496576 
L 414.72 212.496576 
" clip-path="url(#pf197b511be)" style="fill: none; stroke: #b0b0b0; stroke-width: 0.8; stroke-linecap: square"/>
     </g>
     <g id="line2d_24">
      <g>
       <use xlink:href="#mc24b60188d" x="57.6" y="212.496576" style="stroke: #000000; stroke-width: 0.8"/>
      </g>
     </g>
     <g id="text_13">
      <!-- 200 -->
      <g transform="translate(31.5125 216.295795)scale(0.1 -0.1)">
       <use xlink:href="#DejaVuSans-32"/>
       <use xlink:href="#DejaVuSans-30" x="63.623047"/>
       <use xlink:href="#DejaVuSans-30" x="127.246094"/>
      </g>
     </g>
    </g>
    <g id="ytick_4">
     <g id="line2d_25">
      <path d="M 57.6 171.000864 
L 414.72 171.000864 
" clip-path="url(#pf197b511be)" style="fill: none; stroke: #b0b0b0; stroke-width: 0.8; stroke-linecap: square"/>
     </g>
     <g id="line2d_26">
      <g>
       <use xlink:href="#mc24b60188d" x="57.6" y="171.000864" style="stroke: #000000; stroke-width: 0.8"/>
      </g>
     </g>
     <g id="text_14">
      <!-- 300 -->
      <g transform="translate(31.5125 174.800083)scale(0.1 -0.1)">
       <use xlink:href="#DejaVuSans-33"/>
       <use xlink:href="#DejaVuSans-30" x="63.623047"/>
       <use xlink:href="#DejaVuSans-30" x="127.246094"/>
      </g>
     </g>
    </g>
    <g id="ytick_5">
     <g id="line2d_27">
      <path d="M 57.6 129.505153 
L 414.72 129.505153 
" clip-path="url(#pf197b511be)" style="fill: none; stroke: #b0b0b0; stroke-width: 0.8; stroke-linecap: square"/>
     </g>
     <g id="line2d_28">
      <g>
       <use xlink:href="#mc24b60188d" x="57.6" y="129.505153" style="stroke: #000000; stroke-width: 0.8"/>
      </g>
     </g>
     <g id="text_15">
      <!-- 400 -->
      <g transform="translate(31.5125 133.304371)scale(0.1 -0.1)">
       <use xlink:href="#DejaVuSans-34"/>
       <use xlink:href="#DejaVuSans-30" x="63.623047"/>
       <use xlink:href="#DejaVuSans-30" x="127.246094"/>
      </g>
     </g>
    </g>
    <g id="ytick_6">
     <g id="line2d_29">
      <path d="M 57.6 88.009441 
L 414.72 88.009441 
" clip-path="url(#pf197b511be)" style="fill: none; stroke: #b0b0b0; stroke-width: 0.8; stroke-linecap: square"/>
     </g>
     <g id="line2d_30">
      <g>
       <use xlink:href="#mc24b60188d" x="57.6" y="88.009441" style="stroke: #000000; stroke-width: 0.8"/>
      </g>
     </g>
     <g id="text_16">
      <!-- 500 -->
      <g transform="translate(31.5125 91.80866)scale(0.1 -0.1)">
       <use xlink:href="#DejaVuSans-35"/>
       <use xlink:href="#DejaVuSans-30" x="63.623047"/>
       <use xlink:href="#DejaVuSans-30" x="127.246094"/>
      </g>
     </g>
    </g>
    <g id="ytick_7">
     <g id="line2d_31">
      <path d="M 57.6 46.513729 
L 414.72 46.513729 
" clip-path="url(#pf197b511be)" style="fill: none; stroke: #b0b0b0; stroke-width: 0.8; stroke-linecap: square"/>
     </g>
     <g id="line2d_32">
      <g>
       <use xlink:href="#mc24b60188d" x="57.6" y="46.513729" style="stroke: #000000; stroke-width: 0.8"/>
      </g>
     </g>
     <g id="text_17">
      <!-- 600 -->
      <g transform="translate(31.5125 50.312948)scale(0.1 -0.1)">
       <defs>
        <path id="DejaVuSans-36" d="M 2113 2584 
Q 1688 2584 1439 2293 
Q 1191 2003 1191 1497 
Q 1191 994 1439 701 
Q 1688 409 2113 409 
Q 2538 409 2786 701 
Q 3034 994 3034 1497 
Q 3034 2003 2786 2293 
Q 2538 2584 2113 2584 
z
M 3366 4563 
L 3366 3988 
Q 3128 4100 2886 4159 
Q 2644 4219 2406 4219 
Q 1781 4219 1451 3797 
Q 1122 3375 1075 2522 
Q 1259 2794 1537 2939 
Q 1816 3084 2150 3084 
Q 2853 3084 3261 2657 
Q 3669 2231 3669 1497 
Q 3669 778 3244 343 
Q 2819 -91 2113 -91 
Q 1303 -91 875 529 
Q 447 1150 447 2328 
Q 447 3434 972 4092 
Q 1497 4750 2381 4750 
Q 2619 4750 2861 4703 
Q 3103 4656 3366 4563 
z
" transform="scale(0.015625)"/>
       </defs>
       <use xlink:href="#DejaVuSans-36"/>
       <use xlink:href="#DejaVuSans-30" x="63.623047"/>
       <use xlink:href="#DejaVuSans-30" x="127.246094"/>
      </g>
     </g>
    </g>
    <g id="text_18">
     <!-- Intensity -->
     <g transform="translate(25.432812 196.2905)rotate(-90)scale(0.1 -0.1)">
      <defs>
       <path id="DejaVuSans-49" d="M 628 4666 
L 1259 4666 
L 1259 0 
L 628 0 
L 628 4666 
z
" transform="scale(0.015625)"/>
       <path id="DejaVuSans-6e" d="M 3513 2113 
L 3513 0 
L 2938 0 
L 2938 2094 
Q 2938 2591 2744 2837 
Q 2550 3084 2163 3084 
Q 1697 3084 1428 2787 
Q 1159 2491 1159 1978 
L 1159 0 
L 581 0 
L 581 3500 
L 1159 3500 
L 1159 2956 
Q 1366 3272 1645 3428 
Q 1925 3584 2291 3584 
Q 2894 3584 3203 3211 
Q 3513 2838 3513 2113 
z
" transform="scale(0.015625)"/>
       <path id="DejaVuSans-74" d="M 1172 4494 
L 1172 3500 
L 2356 3500 
L 2356 3053 
L 1172 3053 
L 1172 1153 
Q 1172 725 1289 603 
Q 1406 481 1766 481 
L 2356 481 
L 2356 0 
L 1766 0 
Q 1100 0 847 248 
Q 594 497 594 1153 
L 594 3053 
L 172 3053 
L 172 3500 
L 594 3500 
L 594 4494 
L 1172 4494 
z
" transform="scale(0.015625)"/>
       <path id="DejaVuSans-65" d="M 3597 1894 
L 3597 1613 
L 953 1613 
Q 991 1019 1311 708 
Q 1631 397 2203 397 
Q 2534 397 2845 478 
Q 3156 559 3463 722 
L 3463 178 
Q 3153 47 2828 -22 
Q 2503 -91 2169 -91 
Q 1331 -91 842 396 
Q 353 884 353 1716 
Q 353 2575 817 3079 
Q 1281 3584 2069 3584 
Q 2775 3584 3186 3129 
Q 3597 2675 3597 1894 
z
M 3022 2063 
Q 3016 2534 2758 2815 
Q 2500 3097 2075 3097 
Q 1594 3097 1305 2825 
Q 1016 2553 972 2059 
L 3022 2063 
z
" transform="scale(0.015625)"/>
       <path id="DejaVuSans-73" d="M 2834 3397 
L 2834 2853 
Q 2591 2978 2328 3040 
Q 2066 3103 1784 3103 
Q 1356 3103 1142 2972 
Q 928 2841 928 2578 
Q 928 2378 1081 2264 
Q 1234 2150 1697 2047 
L 1894 2003 
Q 2506 1872 2764 1633 
Q 3022 1394 3022 966 
Q 3022 478 2636 193 
Q 2250 -91 1575 -91 
Q 1294 -91 989 -36 
Q 684 19 347 128 
L 347 722 
Q 666 556 975 473 
Q 1284 391 1588 391 
Q 1994 391 2212 530 
Q 2431 669 2431 922 
Q 2431 1156 2273 1281 
Q 2116 1406 1581 1522 
L 1381 1569 
Q 847 1681 609 1914 
Q 372 2147 372 2553 
Q 372 3047 722 3315 
Q 1072 3584 1716 3584 
Q 2034 3584 2315 3537 
Q 2597 3491 2834 3397 
z
" transform="scale(0.015625)"/>
       <path id="DejaVuSans-69" d="M 603 3500 
L 1178 3500 
L 1178 0 
L 603 0 
L 603 3500 
z
M 603 4863 
L 1178 4863 
L 1178 4134 
L 603 4134 
L 603 4863 
z
" transform="scale(0.015625)"/>
       <path id="DejaVuSans-79" d="M 2059 -325 
Q 1816 -950 1584 -1140 
Q 1353 -1331 966 -1331 
L 506 -1331 
L 506 -850 
L 844 -850 
Q 1081 -850 1212 -737 
Q 1344 -625 1503 -206 
L 1606 56 
L 191 3500 
L 800 3500 
L 1894 763 
L 2988 3500 
L 3597 3500 
L 2059 -325 
z
" transform="scale(0.015625)"/>
      </defs>
      <use xlink:href="#DejaVuSans-49"/>
      <use xlink:href="#DejaVuSans-6e" x="29.492188"/>
      <use xlink:href="#DejaVuSans-74" x="92.871094"/>
      <use xlink:href="#DejaVuSans-65" x="132.080078"/>
      <use xlink:href="#DejaVuSans-6e" x="193.603516"/>
      <use xlink:href="#DejaVuSans-73" x="256.982422"/>
      <use xlink:href="#DejaVuSans-69" x="309.082031"/>
      <use xlink:href="#DejaVuSans-74" x="336.865234"/>
      <use xlink:href="#DejaVuSans-79" x="376.074219"/>
     </g>
    </g>
   </g>
   <g id="line2d_33">
    <path d="M 73.832727 295.073043 
L 74.668713 295.488 
L 78.004538 295.488 
L 78.840524 294.658086 
L 79.676509 286.773901 
L 80.512495 274.325187 
L 81.340364 272.665358 
L 82.176349 268.930744 
L 83.012335 259.801688 
L 83.84832 266.026045 
L 84.684305 258.141859 
L 85.520291 258.971774 
L 86.34816 250.672631 
L 87.184145 251.502545 
L 88.020131 257.726902 
L 88.856116 256.482031 
L 89.692102 252.33246 
L 90.528087 256.067074 
L 91.355956 263.121345 
L 92.191942 259.386731 
L 93.027927 253.577331 
L 93.863913 254.407245 
L 94.699898 261.461516 
L 95.535884 266.441002 
L 96.363753 258.141859 
L 97.199738 260.631602 
L 98.035724 268.930744 
L 98.871709 261.876473 
L 99.707695 268.930744 
L 100.535564 265.611087 
L 101.371549 272.250401 
L 102.207535 266.855959 
L 103.04352 273.91023 
L 103.879505 275.155101 
L 104.715491 277.229887 
L 105.54336 272.665358 
L 106.379345 278.059801 
L 107.215331 272.250401 
L 108.051316 273.91023 
L 108.887302 275.155101 
L 109.723287 275.570058 
L 110.551156 278.889715 
L 111.387142 276.81493 
L 112.223127 277.229887 
L 113.059113 279.71963 
L 113.895098 276.81493 
L 114.731084 277.644844 
L 115.558953 276.81493 
L 116.394938 276.81493 
L 117.230924 275.570058 
L 118.066909 275.155101 
L 118.902895 278.889715 
L 119.73888 277.644844 
L 120.566749 278.474758 
L 121.402735 280.134587 
L 122.23872 285.529029 
L 123.074705 279.71963 
L 123.910691 280.549544 
L 124.73856 282.624329 
L 125.574545 277.229887 
L 126.410531 280.134587 
L 127.246516 284.699115 
L 128.082502 281.379458 
L 128.918487 277.229887 
L 129.746356 281.794415 
L 130.582342 283.454244 
L 131.418327 285.943986 
L 132.254313 284.284158 
L 133.090298 284.699115 
L 133.926284 285.529029 
L 134.754153 284.284158 
L 135.590138 281.379458 
L 136.426124 283.454244 
L 137.262109 284.699115 
L 138.098095 282.624329 
L 138.93408 284.699115 
L 139.761949 282.209372 
L 140.597935 287.603815 
L 141.43392 282.624329 
L 142.269905 285.114072 
L 143.105891 282.624329 
L 143.941876 282.209372 
L 144.769745 283.869201 
L 145.605731 280.134587 
L 146.441716 285.529029 
L 147.277702 284.284158 
L 148.113687 283.869201 
L 148.941556 278.889715 
L 149.777542 281.379458 
L 150.613527 283.454244 
L 151.449513 281.379458 
L 152.285498 283.039286 
L 153.121484 283.869201 
L 153.949353 285.114072 
L 154.785338 283.039286 
L 155.621324 286.358943 
L 156.457309 284.699115 
L 157.293295 284.699115 
L 158.12928 280.549544 
L 158.957149 283.869201 
L 159.793135 283.454244 
L 160.62912 280.134587 
L 161.465105 283.039286 
L 162.301091 283.454244 
L 163.137076 277.644844 
L 163.964945 285.943986 
L 164.800931 284.699115 
L 165.636916 281.794415 
L 166.472902 287.188858 
L 167.308887 287.603815 
L 168.144873 284.284158 
L 168.972742 287.188858 
L 169.808727 284.699115 
L 170.644713 287.188858 
L 171.480698 275.985015 
L 172.316684 286.358943 
L 173.152669 281.379458 
L 174.816524 275.155101 
L 175.652509 244.863232 
L 176.488495 225.775204 
L 177.32448 161.456851 
L 178.152349 53.568 
L 178.988335 135.314552 
L 179.82432 168.096165 
L 180.660305 193.408549 
L 181.496291 258.141859 
L 182.332276 278.889715 
L 183.160145 285.529029 
L 183.996131 286.773901 
L 184.832116 287.188858 
L 185.668102 287.188858 
L 187.340073 288.848686 
L 188.167942 287.188858 
L 189.003927 288.018772 
L 189.839913 286.358943 
L 190.675898 285.529029 
L 191.511884 288.433729 
L 192.347869 286.358943 
L 193.175738 289.6786 
L 194.011724 285.943986 
L 194.847709 285.529029 
L 195.683695 292.998257 
L 196.51968 286.358943 
L 197.355665 288.848686 
L 198.183535 289.263643 
L 199.01952 287.188858 
L 199.855505 290.093557 
L 200.691491 287.603815 
L 201.527476 290.508515 
L 202.355345 287.188858 
L 203.191331 290.923472 
L 204.027316 289.263643 
L 204.863302 288.018772 
L 205.699287 291.338429 
L 206.535273 289.263643 
L 207.363142 288.018772 
L 208.199127 292.168343 
L 209.035113 286.773901 
L 209.871098 288.848686 
L 210.707084 288.018772 
L 211.543069 288.848686 
L 212.370938 289.263643 
L 213.206924 290.508515 
L 214.042909 290.093557 
L 214.878895 288.433729 
L 215.71488 293.413214 
L 217.378735 286.358943 
L 218.21472 290.093557 
L 219.050705 288.433729 
L 219.886691 291.753386 
L 220.722676 291.338429 
L 221.558662 285.114072 
L 222.386531 291.338429 
L 223.222516 290.508515 
L 224.058502 290.508515 
L 224.894487 289.263643 
L 225.730473 289.263643 
L 226.558342 290.923472 
L 227.394327 290.508515 
L 228.230313 289.6786 
L 229.066298 289.6786 
L 229.902284 288.018772 
L 230.738269 292.168343 
L 231.566138 285.943986 
L 232.402124 289.6786 
L 233.238109 291.753386 
L 234.074095 288.018772 
L 234.91008 290.093557 
L 235.746065 286.773901 
L 236.573935 289.263643 
L 237.40992 290.508515 
L 238.245905 289.6786 
L 239.081891 292.5833 
L 239.917876 288.848686 
L 240.753862 290.508515 
L 241.581731 288.848686 
L 242.417716 284.699115 
L 243.253702 278.889715 
L 244.089687 245.278189 
L 244.925673 224.530333 
L 245.761658 136.559424 
L 246.589527 131.579938 
L 247.425513 204.197434 
L 248.261498 244.033317 
L 249.097484 266.026045 
L 249.933469 283.039286 
L 250.761338 291.338429 
L 251.597324 289.263643 
L 252.433309 285.943986 
L 253.269295 290.923472 
L 254.10528 288.433729 
L 254.941265 290.508515 
L 255.769135 291.338429 
L 256.60512 290.508515 
L 257.441105 293.413214 
L 258.277091 289.263643 
L 259.113076 291.753386 
L 259.949062 290.923472 
L 260.776931 288.848686 
L 261.612916 290.508515 
L 262.448902 294.243129 
L 263.284887 290.923472 
L 264.120873 290.093557 
L 264.956858 289.6786 
L 265.784727 292.168343 
L 266.620713 289.6786 
L 267.456698 290.508515 
L 268.292684 289.6786 
L 269.128669 292.168343 
L 269.964655 290.508515 
L 270.792524 290.923472 
L 271.628509 289.263643 
L 272.464495 290.923472 
L 273.30048 288.433729 
L 274.136465 276.81493 
L 274.964335 237.808961 
L 275.80032 225.360247 
L 276.636305 207.102134 
L 277.472291 213.741448 
L 278.308276 259.386731 
L 279.144262 275.570058 
L 279.972131 282.209372 
L 280.808116 287.188858 
L 281.644102 290.923472 
L 282.480087 288.018772 
L 283.316073 289.263643 
L 284.152058 292.5833 
L 284.979927 291.338429 
L 285.815913 291.753386 
L 286.651898 291.753386 
L 287.487884 290.508515 
L 288.323869 291.753386 
L 289.159855 291.753386 
L 289.987724 290.093557 
L 290.823709 291.753386 
L 291.659695 291.753386 
L 292.49568 290.508515 
L 293.331665 290.508515 
L 294.167651 288.848686 
L 294.99552 291.338429 
L 295.831505 288.848686 
L 296.667491 289.263643 
L 297.503476 291.753386 
L 298.339462 289.6786 
L 299.167331 292.168343 
L 300.003316 291.753386 
L 300.839302 292.5833 
L 301.675287 291.338429 
L 302.511273 289.6786 
L 303.347258 293.413214 
L 305.011113 288.433729 
L 305.847098 290.923472 
L 306.683084 290.508515 
L 307.519069 292.168343 
L 308.355055 289.6786 
L 309.182924 289.6786 
L 310.018909 290.923472 
L 310.854895 290.923472 
L 311.69088 287.188858 
L 313.362851 291.338429 
L 314.19072 289.263643 
L 315.026705 290.093557 
L 315.862691 289.263643 
L 316.698676 283.039286 
L 317.534662 282.209372 
L 318.370647 271.420487 
L 319.198516 265.19613 
L 320.034502 273.495273 
L 320.870487 280.134587 
L 321.706473 283.039286 
L 322.542458 289.6786 
L 323.378444 290.923472 
L 324.206313 290.508515 
L 325.042298 290.508515 
L 325.878284 289.263643 
L 326.714269 292.168343 
L 327.550255 289.6786 
L 328.378124 292.998257 
L 329.214109 290.093557 
L 330.050095 291.753386 
L 330.88608 290.093557 
L 331.722065 290.923472 
L 332.558051 292.5833 
L 333.38592 292.998257 
L 334.221905 290.923472 
L 335.057891 292.168343 
L 335.893876 291.338429 
L 336.729862 292.168343 
L 337.565847 289.6786 
L 338.393716 290.923472 
L 339.229702 287.603815 
L 340.065687 279.71963 
L 340.901673 266.855959 
L 341.737658 257.726902 
L 342.573644 259.801688 
L 343.401513 274.325187 
L 344.237498 275.155101 
L 345.073484 286.773901 
L 345.909469 287.603815 
L 346.745455 292.998257 
L 347.58144 291.338429 
L 348.409309 292.168343 
L 349.245295 288.848686 
L 350.08128 291.753386 
L 350.917265 289.6786 
L 352.58112 292.168343 
L 353.417105 290.508515 
L 354.253091 290.923472 
L 355.089076 289.263643 
L 355.925062 293.828172 
L 356.761047 286.773901 
L 357.588916 291.753386 
L 358.424902 292.998257 
L 359.260887 290.508515 
L 360.096873 290.093557 
L 360.932858 288.848686 
L 361.768844 293.828172 
L 362.596713 292.5833 
L 363.432698 291.753386 
L 364.268684 290.508515 
L 365.104669 290.923472 
L 365.940655 292.168343 
L 366.77664 290.508515 
L 367.604509 292.168343 
L 368.440495 292.168343 
L 369.27648 290.093557 
L 370.112465 293.828172 
L 370.948451 290.508515 
L 371.784436 289.263643 
L 372.612305 290.508515 
L 373.448291 290.508515 
L 374.284276 285.943986 
L 375.120262 249.012803 
L 375.956247 252.747417 
L 376.784116 250.672631 
L 377.620102 258.141859 
L 378.456087 275.155101 
L 379.292073 277.229887 
L 380.128058 288.848686 
L 380.964044 288.018772 
L 381.791913 289.263643 
L 382.627898 291.753386 
L 383.463884 289.6786 
L 384.299869 293.413214 
L 385.135855 290.923472 
L 385.97184 292.5833 
L 386.799709 291.753386 
L 387.635695 288.848686 
L 388.47168 291.338429 
L 389.307665 293.413214 
L 390.143651 289.263643 
L 390.979636 292.168343 
L 391.807505 290.508515 
L 392.643491 289.6786 
L 393.479476 286.358943 
L 394.315462 275.155101 
L 395.151447 271.00553 
L 396.815302 279.304672 
L 397.651287 280.549544 
L 398.487273 285.529029 
L 398.487273 285.529029 
" clip-path="url(#pf197b511be)" style="fill: none; stroke: #1f77b4; stroke-width: 1.5; stroke-linecap: square"/>
   </g>
   <g id="patch_3">
    <path d="M 57.6 307.584 
L 57.6 41.472 
" style="fill: none; stroke: #000000; stroke-width: 0.8; stroke-linejoin: miter; stroke-linecap: square"/>
   </g>
   <g id="patch_4">
    <path d="M 414.72 307.584 
L 414.72 41.472 
" style="fill: none; stroke: #000000; stroke-width: 0.8; stroke-linejoin: miter; stroke-linecap: square"/>
   </g>
   <g id="patch_5">
    <path d="M 57.6 307.584 
L 414.72 307.584 
" style="fill: none; stroke: #000000; stroke-width: 0.8; stroke-linejoin: miter; stroke-linecap: square"/>
   </g>
   <g id="patch_6">
    <path d="M 57.6 41.472 
L 414.72 41.472 
" style="fill: none; stroke: #000000; stroke-width: 0.8; stroke-linejoin: miter; stroke-linecap: square"/>
   </g>
   <g id="text_19">
    <!-- Crystaline Si -->
    <g transform="translate(198.586875 35.472)scale(0.12 -0.12)">
     <defs>
      <path id="DejaVuSans-43" d="M 4122 4306 
L 4122 3641 
Q 3803 3938 3442 4084 
Q 3081 4231 2675 4231 
Q 1875 4231 1450 3742 
Q 1025 3253 1025 2328 
Q 1025 1406 1450 917 
Q 1875 428 2675 428 
Q 3081 428 3442 575 
Q 3803 722 4122 1019 
L 4122 359 
Q 3791 134 3420 21 
Q 3050 -91 2638 -91 
Q 1578 -91 968 557 
Q 359 1206 359 2328 
Q 359 3453 968 4101 
Q 1578 4750 2638 4750 
Q 3056 4750 3426 4639 
Q 3797 4528 4122 4306 
z
" transform="scale(0.015625)"/>
      <path id="DejaVuSans-72" d="M 2631 2963 
Q 2534 3019 2420 3045 
Q 2306 3072 2169 3072 
Q 1681 3072 1420 2755 
Q 1159 2438 1159 1844 
L 1159 0 
L 581 0 
L 581 3500 
L 1159 3500 
L 1159 2956 
Q 1341 3275 1631 3429 
Q 1922 3584 2338 3584 
Q 2397 3584 2469 3576 
Q 2541 3569 2628 3553 
L 2631 2963 
z
" transform="scale(0.015625)"/>
      <path id="DejaVuSans-61" d="M 2194 1759 
Q 1497 1759 1228 1600 
Q 959 1441 959 1056 
Q 959 750 1161 570 
Q 1363 391 1709 391 
Q 2188 391 2477 730 
Q 2766 1069 2766 1631 
L 2766 1759 
L 2194 1759 
z
M 3341 1997 
L 3341 0 
L 2766 0 
L 2766 531 
Q 2569 213 2275 61 
Q 1981 -91 1556 -91 
Q 1019 -91 701 211 
Q 384 513 384 1019 
Q 384 1609 779 1909 
Q 1175 2209 1959 2209 
L 2766 2209 
L 2766 2266 
Q 2766 2663 2505 2880 
Q 2244 3097 1772 3097 
Q 1472 3097 1187 3025 
Q 903 2953 641 2809 
L 641 3341 
Q 956 3463 1253 3523 
Q 1550 3584 1831 3584 
Q 2591 3584 2966 3190 
Q 3341 2797 3341 1997 
z
" transform="scale(0.015625)"/>
      <path id="DejaVuSans-6c" d="M 603 4863 
L 1178 4863 
L 1178 0 
L 603 0 
L 603 4863 
z
" transform="scale(0.015625)"/>
      <path id="DejaVuSans-20" transform="scale(0.015625)"/>
      <path id="DejaVuSans-53" d="M 3425 4513 
L 3425 3897 
Q 3066 4069 2747 4153 
Q 2428 4238 2131 4238 
Q 1616 4238 1336 4038 
Q 1056 3838 1056 3469 
Q 1056 3159 1242 3001 
Q 1428 2844 1947 2747 
L 2328 2669 
Q 3034 2534 3370 2195 
Q 3706 1856 3706 1288 
Q 3706 609 3251 259 
Q 2797 -91 1919 -91 
Q 1588 -91 1214 -16 
Q 841 59 441 206 
L 441 856 
Q 825 641 1194 531 
Q 1563 422 1919 422 
Q 2459 422 2753 634 
Q 3047 847 3047 1241 
Q 3047 1584 2836 1778 
Q 2625 1972 2144 2069 
L 1759 2144 
Q 1053 2284 737 2584 
Q 422 2884 422 3419 
Q 422 4038 858 4394 
Q 1294 4750 2059 4750 
Q 2388 4750 2728 4690 
Q 3069 4631 3425 4513 
z
" transform="scale(0.015625)"/>
     </defs>
     <use xlink:href="#DejaVuSans-43"/>
     <use xlink:href="#DejaVuSans-72" x="69.824219"/>
     <use xlink:href="#DejaVuSans-79" x="110.9375"/>
     <use xlink:href="#DejaVuSans-73" x="170.117188"/>
     <use xlink:href="#DejaVuSans-74" x="222.216797"/>
     <use xlink:href="#DejaVuSans-61" x="261.425781"/>
     <use xlink:href="#DejaVuSans-6c" x="322.705078"/>
     <use xlink:href="#DejaVuSans-69" x="350.488281"/>
     <use xlink:href="#DejaVuSans-6e" x="378.271484"/>
     <use xlink:href="#DejaVuSans-65" x="441.650391"/>
     <use xlink:href="#DejaVuSans-20" x="503.173828"/>
     <use xlink:href="#DejaVuSans-53" x="534.960938"/>
     <use xlink:href="#DejaVuSans-69" x="598.4375"/>
    </g>
   </g>
  </g>
 </g>
 <defs>
  <clipPath id="pf197b511be">
   <rect x="57.6" y="41.472" width="357.12" height="266.112"/>
  </clipPath>
 </defs>
</svg>
