<?xml version="1.0" encoding="utf-8" standalone="no"?>
<!DOCTYPE svg PUBLIC "-//W3C//DTD SVG 1.1//EN"
  "http://www.w3.org/Graphics/SVG/1.1/DTD/svg11.dtd">
<svg xmlns:xlink="http://www.w3.org/1999/xlink" width="460.8pt" height="345.6pt" viewBox="0 0 460.8 345.6" xmlns="http://www.w3.org/2000/svg" version="1.1">
 <metadata>
  <rdf:RDF xmlns:dc="http://purl.org/dc/elements/1.1/" xmlns:cc="http://creativecommons.org/ns#" xmlns:rdf="http://www.w3.org/1999/02/22-rdf-syntax-ns#">
   <cc:Work>
    <dc:type rdf:resource="http://purl.org/dc/dcmitype/StillImage"/>
    <dc:date>2022-03-11T11:12:43.374722</dc:date>
    <dc:format>image/svg+xml</dc:format>
    <dc:creator>
     <cc:Agent>
      <dc:title>Matplotlib v3.5.1, https://matplotlib.org/</dc:title>
     </cc:Agent>
    </dc:creator>
   </cc:Work>
  </rdf:RDF>
 </metadata>
 <defs>
  <style type="text/css">*{stroke-linejoin: round; stroke-linecap: butt}</style>
 </defs>
 <g id="figure_1">
  <g id="patch_1">
   <path d="M 0 345.6 
L 460.8 345.6 
L 460.8 0 
L 0 0 
z
" style="fill: #ffffff"/>
  </g>
  <g id="axes_1">
   <g id="patch_2">
    <path d="M 57.6 307.584 
L 414.72 307.584 
L 414.72 41.472 
L 57.6 41.472 
z
" style="fill: #ffffff"/>
   </g>
   <g id="matplotlib.axis_1">
    <g id="xtick_1">
     <g id="line2d_1">
      <path d="M 73.832727 307.584 
L 73.832727 41.472 
" clip-path="url(#p827ddd2aa4)" style="fill: none; stroke: #b0b0b0; stroke-width: 0.8; stroke-linecap: square"/>
     </g>
     <g id="line2d_2">
      <defs>
       <path id="m052387f6e9" d="M 0 0 
L 0 3.5 
" style="stroke: #000000; stroke-width: 0.8"/>
      </defs>
      <g>
       <use xlink:href="#m052387f6e9" x="73.832727" y="307.584" style="stroke: #000000; stroke-width: 0.8"/>
      </g>
     </g>
     <g id="text_1">
      <!-- 0 -->
      <g transform="translate(70.651477 322.182437)scale(0.1 -0.1)">
       <defs>
        <path id="DejaVuSans-30" d="M 2034 4250 
Q 1547 4250 1301 3770 
Q 1056 3291 1056 2328 
Q 1056 1369 1301 889 
Q 1547 409 2034 409 
Q 2525 409 2770 889 
Q 3016 1369 3016 2328 
Q 3016 3291 2770 3770 
Q 2525 4250 2034 4250 
z
M 2034 4750 
Q 2819 4750 3233 4129 
Q 3647 3509 3647 2328 
Q 3647 1150 3233 529 
Q 2819 -91 2034 -91 
Q 1250 -91 836 529 
Q 422 1150 422 2328 
Q 422 3509 836 4129 
Q 1250 4750 2034 4750 
z
" transform="scale(0.015625)"/>
       </defs>
       <use xlink:href="#DejaVuSans-30"/>
      </g>
     </g>
    </g>
    <g id="xtick_2">
     <g id="line2d_3">
      <path d="M 114.414545 307.584 
L 114.414545 41.472 
" clip-path="url(#p827ddd2aa4)" style="fill: none; stroke: #b0b0b0; stroke-width: 0.8; stroke-linecap: square"/>
     </g>
     <g id="line2d_4">
      <g>
       <use xlink:href="#m052387f6e9" x="114.414545" y="307.584" style="stroke: #000000; stroke-width: 0.8"/>
      </g>
     </g>
     <g id="text_2">
      <!-- 5 -->
      <g transform="translate(111.233295 322.182437)scale(0.1 -0.1)">
       <defs>
        <path id="DejaVuSans-35" d="M 691 4666 
L 3169 4666 
L 3169 4134 
L 1269 4134 
L 1269 2991 
Q 1406 3038 1543 3061 
Q 1681 3084 1819 3084 
Q 2600 3084 3056 2656 
Q 3513 2228 3513 1497 
Q 3513 744 3044 326 
Q 2575 -91 1722 -91 
Q 1428 -91 1123 -41 
Q 819 9 494 109 
L 494 744 
Q 775 591 1075 516 
Q 1375 441 1709 441 
Q 2250 441 2565 725 
Q 2881 1009 2881 1497 
Q 2881 1984 2565 2268 
Q 2250 2553 1709 2553 
Q 1456 2553 1204 2497 
Q 953 2441 691 2322 
L 691 4666 
z
" transform="scale(0.015625)"/>
       </defs>
       <use xlink:href="#DejaVuSans-35"/>
      </g>
     </g>
    </g>
    <g id="xtick_3">
     <g id="line2d_5">
      <path d="M 154.996364 307.584 
L 154.996364 41.472 
" clip-path="url(#p827ddd2aa4)" style="fill: none; stroke: #b0b0b0; stroke-width: 0.8; stroke-linecap: square"/>
     </g>
     <g id="line2d_6">
      <g>
       <use xlink:href="#m052387f6e9" x="154.996364" y="307.584" style="stroke: #000000; stroke-width: 0.8"/>
      </g>
     </g>
     <g id="text_3">
      <!-- 10 -->
      <g transform="translate(148.633864 322.182437)scale(0.1 -0.1)">
       <defs>
        <path id="DejaVuSans-31" d="M 794 531 
L 1825 531 
L 1825 4091 
L 703 3866 
L 703 4441 
L 1819 4666 
L 2450 4666 
L 2450 531 
L 3481 531 
L 3481 0 
L 794 0 
L 794 531 
z
" transform="scale(0.015625)"/>
       </defs>
       <use xlink:href="#DejaVuSans-31"/>
       <use xlink:href="#DejaVuSans-30" x="63.623047"/>
      </g>
     </g>
    </g>
    <g id="xtick_4">
     <g id="line2d_7">
      <path d="M 195.578182 307.584 
L 195.578182 41.472 
" clip-path="url(#p827ddd2aa4)" style="fill: none; stroke: #b0b0b0; stroke-width: 0.8; stroke-linecap: square"/>
     </g>
     <g id="line2d_8">
      <g>
       <use xlink:href="#m052387f6e9" x="195.578182" y="307.584" style="stroke: #000000; stroke-width: 0.8"/>
      </g>
     </g>
     <g id="text_4">
      <!-- 15 -->
      <g transform="translate(189.215682 322.182437)scale(0.1 -0.1)">
       <use xlink:href="#DejaVuSans-31"/>
       <use xlink:href="#DejaVuSans-35" x="63.623047"/>
      </g>
     </g>
    </g>
    <g id="xtick_5">
     <g id="line2d_9">
      <path d="M 236.16 307.584 
L 236.16 41.472 
" clip-path="url(#p827ddd2aa4)" style="fill: none; stroke: #b0b0b0; stroke-width: 0.8; stroke-linecap: square"/>
     </g>
     <g id="line2d_10">
      <g>
       <use xlink:href="#m052387f6e9" x="236.16" y="307.584" style="stroke: #000000; stroke-width: 0.8"/>
      </g>
     </g>
     <g id="text_5">
      <!-- 20 -->
      <g transform="translate(229.7975 322.182437)scale(0.1 -0.1)">
       <defs>
        <path id="DejaVuSans-32" d="M 1228 531 
L 3431 531 
L 3431 0 
L 469 0 
L 469 531 
Q 828 903 1448 1529 
Q 2069 2156 2228 2338 
Q 2531 2678 2651 2914 
Q 2772 3150 2772 3378 
Q 2772 3750 2511 3984 
Q 2250 4219 1831 4219 
Q 1534 4219 1204 4116 
Q 875 4013 500 3803 
L 500 4441 
Q 881 4594 1212 4672 
Q 1544 4750 1819 4750 
Q 2544 4750 2975 4387 
Q 3406 4025 3406 3419 
Q 3406 3131 3298 2873 
Q 3191 2616 2906 2266 
Q 2828 2175 2409 1742 
Q 1991 1309 1228 531 
z
" transform="scale(0.015625)"/>
       </defs>
       <use xlink:href="#DejaVuSans-32"/>
       <use xlink:href="#DejaVuSans-30" x="63.623047"/>
      </g>
     </g>
    </g>
    <g id="xtick_6">
     <g id="line2d_11">
      <path d="M 276.741818 307.584 
L 276.741818 41.472 
" clip-path="url(#p827ddd2aa4)" style="fill: none; stroke: #b0b0b0; stroke-width: 0.8; stroke-linecap: square"/>
     </g>
     <g id="line2d_12">
      <g>
       <use xlink:href="#m052387f6e9" x="276.741818" y="307.584" style="stroke: #000000; stroke-width: 0.8"/>
      </g>
     </g>
     <g id="text_6">
      <!-- 25 -->
      <g transform="translate(270.379318 322.182437)scale(0.1 -0.1)">
       <use xlink:href="#DejaVuSans-32"/>
       <use xlink:href="#DejaVuSans-35" x="63.623047"/>
      </g>
     </g>
    </g>
    <g id="xtick_7">
     <g id="line2d_13">
      <path d="M 317.323636 307.584 
L 317.323636 41.472 
" clip-path="url(#p827ddd2aa4)" style="fill: none; stroke: #b0b0b0; stroke-width: 0.8; stroke-linecap: square"/>
     </g>
     <g id="line2d_14">
      <g>
       <use xlink:href="#m052387f6e9" x="317.323636" y="307.584" style="stroke: #000000; stroke-width: 0.8"/>
      </g>
     </g>
     <g id="text_7">
      <!-- 30 -->
      <g transform="translate(310.961136 322.182437)scale(0.1 -0.1)">
       <defs>
        <path id="DejaVuSans-33" d="M 2597 2516 
Q 3050 2419 3304 2112 
Q 3559 1806 3559 1356 
Q 3559 666 3084 287 
Q 2609 -91 1734 -91 
Q 1441 -91 1130 -33 
Q 819 25 488 141 
L 488 750 
Q 750 597 1062 519 
Q 1375 441 1716 441 
Q 2309 441 2620 675 
Q 2931 909 2931 1356 
Q 2931 1769 2642 2001 
Q 2353 2234 1838 2234 
L 1294 2234 
L 1294 2753 
L 1863 2753 
Q 2328 2753 2575 2939 
Q 2822 3125 2822 3475 
Q 2822 3834 2567 4026 
Q 2313 4219 1838 4219 
Q 1578 4219 1281 4162 
Q 984 4106 628 3988 
L 628 4550 
Q 988 4650 1302 4700 
Q 1616 4750 1894 4750 
Q 2613 4750 3031 4423 
Q 3450 4097 3450 3541 
Q 3450 3153 3228 2886 
Q 3006 2619 2597 2516 
z
" transform="scale(0.015625)"/>
       </defs>
       <use xlink:href="#DejaVuSans-33"/>
       <use xlink:href="#DejaVuSans-30" x="63.623047"/>
      </g>
     </g>
    </g>
    <g id="xtick_8">
     <g id="line2d_15">
      <path d="M 357.905455 307.584 
L 357.905455 41.472 
" clip-path="url(#p827ddd2aa4)" style="fill: none; stroke: #b0b0b0; stroke-width: 0.8; stroke-linecap: square"/>
     </g>
     <g id="line2d_16">
      <g>
       <use xlink:href="#m052387f6e9" x="357.905455" y="307.584" style="stroke: #000000; stroke-width: 0.8"/>
      </g>
     </g>
     <g id="text_8">
      <!-- 35 -->
      <g transform="translate(351.542955 322.182437)scale(0.1 -0.1)">
       <use xlink:href="#DejaVuSans-33"/>
       <use xlink:href="#DejaVuSans-35" x="63.623047"/>
      </g>
     </g>
    </g>
    <g id="xtick_9">
     <g id="line2d_17">
      <path d="M 398.487273 307.584 
L 398.487273 41.472 
" clip-path="url(#p827ddd2aa4)" style="fill: none; stroke: #b0b0b0; stroke-width: 0.8; stroke-linecap: square"/>
     </g>
     <g id="line2d_18">
      <g>
       <use xlink:href="#m052387f6e9" x="398.487273" y="307.584" style="stroke: #000000; stroke-width: 0.8"/>
      </g>
     </g>
     <g id="text_9">
      <!-- 40 -->
      <g transform="translate(392.124773 322.182437)scale(0.1 -0.1)">
       <defs>
        <path id="DejaVuSans-34" d="M 2419 4116 
L 825 1625 
L 2419 1625 
L 2419 4116 
z
M 2253 4666 
L 3047 4666 
L 3047 1625 
L 3713 1625 
L 3713 1100 
L 3047 1100 
L 3047 0 
L 2419 0 
L 2419 1100 
L 313 1100 
L 313 1709 
L 2253 4666 
z
" transform="scale(0.015625)"/>
       </defs>
       <use xlink:href="#DejaVuSans-34"/>
       <use xlink:href="#DejaVuSans-30" x="63.623047"/>
      </g>
     </g>
    </g>
    <g id="text_10">
     <!-- $2\theta$ -->
     <g transform="translate(229.91 335.860562)scale(0.1 -0.1)">
      <defs>
       <path id="DejaVuSans-Oblique-3b8" d="M 2913 2219 
L 925 2219 
Q 791 1284 928 888 
Q 1100 400 1566 400 
Q 2034 400 2391 891 
Q 2703 1322 2913 2219 
z
M 3009 2750 
Q 3094 3638 2984 3950 
Q 2813 4444 2353 4444 
Q 1875 4444 1525 3956 
Q 1250 3563 1034 2750 
L 3009 2750 
z
M 2444 4913 
Q 3194 4913 3494 4250 
Q 3794 3591 3566 2422 
Q 3341 1256 2781 594 
Q 2225 -72 1475 -72 
Q 722 -72 425 594 
Q 128 1256 353 2422 
Q 581 3591 1134 4250 
Q 1691 4913 2444 4913 
z
" transform="scale(0.015625)"/>
      </defs>
      <use xlink:href="#DejaVuSans-32" transform="translate(0 0.234375)"/>
      <use xlink:href="#DejaVuSans-Oblique-3b8" transform="translate(63.623047 0.234375)"/>
     </g>
    </g>
   </g>
   <g id="matplotlib.axis_2">
    <g id="ytick_1">
     <g id="line2d_19">
      <path d="M 57.6 295.488 
L 414.72 295.488 
" clip-path="url(#p827ddd2aa4)" style="fill: none; stroke: #b0b0b0; stroke-width: 0.8; stroke-linecap: square"/>
     </g>
     <g id="line2d_20">
      <defs>
       <path id="mbc5f675fe0" d="M 0 0 
L -3.5 0 
" style="stroke: #000000; stroke-width: 0.8"/>
      </defs>
      <g>
       <use xlink:href="#mbc5f675fe0" x="57.6" y="295.488" style="stroke: #000000; stroke-width: 0.8"/>
      </g>
     </g>
     <g id="text_11">
      <!-- 0 -->
      <g transform="translate(44.2375 299.287219)scale(0.1 -0.1)">
       <use xlink:href="#DejaVuSans-30"/>
      </g>
     </g>
    </g>
    <g id="ytick_2">
     <g id="line2d_21">
      <path d="M 57.6 256.342369 
L 414.72 256.342369 
" clip-path="url(#p827ddd2aa4)" style="fill: none; stroke: #b0b0b0; stroke-width: 0.8; stroke-linecap: square"/>
     </g>
     <g id="line2d_22">
      <g>
       <use xlink:href="#mbc5f675fe0" x="57.6" y="256.342369" style="stroke: #000000; stroke-width: 0.8"/>
      </g>
     </g>
     <g id="text_12">
      <!-- 50 -->
      <g transform="translate(37.875 260.141588)scale(0.1 -0.1)">
       <use xlink:href="#DejaVuSans-35"/>
       <use xlink:href="#DejaVuSans-30" x="63.623047"/>
      </g>
     </g>
    </g>
    <g id="ytick_3">
     <g id="line2d_23">
      <path d="M 57.6 217.196738 
L 414.72 217.196738 
" clip-path="url(#p827ddd2aa4)" style="fill: none; stroke: #b0b0b0; stroke-width: 0.8; stroke-linecap: square"/>
     </g>
     <g id="line2d_24">
      <g>
       <use xlink:href="#mbc5f675fe0" x="57.6" y="217.196738" style="stroke: #000000; stroke-width: 0.8"/>
      </g>
     </g>
     <g id="text_13">
      <!-- 100 -->
      <g transform="translate(31.5125 220.995957)scale(0.1 -0.1)">
       <use xlink:href="#DejaVuSans-31"/>
       <use xlink:href="#DejaVuSans-30" x="63.623047"/>
       <use xlink:href="#DejaVuSans-30" x="127.246094"/>
      </g>
     </g>
    </g>
    <g id="ytick_4">
     <g id="line2d_25">
      <path d="M 57.6 178.051107 
L 414.72 178.051107 
" clip-path="url(#p827ddd2aa4)" style="fill: none; stroke: #b0b0b0; stroke-width: 0.8; stroke-linecap: square"/>
     </g>
     <g id="line2d_26">
      <g>
       <use xlink:href="#mbc5f675fe0" x="57.6" y="178.051107" style="stroke: #000000; stroke-width: 0.8"/>
      </g>
     </g>
     <g id="text_14">
      <!-- 150 -->
      <g transform="translate(31.5125 181.850326)scale(0.1 -0.1)">
       <use xlink:href="#DejaVuSans-31"/>
       <use xlink:href="#DejaVuSans-35" x="63.623047"/>
       <use xlink:href="#DejaVuSans-30" x="127.246094"/>
      </g>
     </g>
    </g>
    <g id="ytick_5">
     <g id="line2d_27">
      <path d="M 57.6 138.905476 
L 414.72 138.905476 
" clip-path="url(#p827ddd2aa4)" style="fill: none; stroke: #b0b0b0; stroke-width: 0.8; stroke-linecap: square"/>
     </g>
     <g id="line2d_28">
      <g>
       <use xlink:href="#mbc5f675fe0" x="57.6" y="138.905476" style="stroke: #000000; stroke-width: 0.8"/>
      </g>
     </g>
     <g id="text_15">
      <!-- 200 -->
      <g transform="translate(31.5125 142.704694)scale(0.1 -0.1)">
       <use xlink:href="#DejaVuSans-32"/>
       <use xlink:href="#DejaVuSans-30" x="63.623047"/>
       <use xlink:href="#DejaVuSans-30" x="127.246094"/>
      </g>
     </g>
    </g>
    <g id="ytick_6">
     <g id="line2d_29">
      <path d="M 57.6 99.759845 
L 414.72 99.759845 
" clip-path="url(#p827ddd2aa4)" style="fill: none; stroke: #b0b0b0; stroke-width: 0.8; stroke-linecap: square"/>
     </g>
     <g id="line2d_30">
      <g>
       <use xlink:href="#mbc5f675fe0" x="57.6" y="99.759845" style="stroke: #000000; stroke-width: 0.8"/>
      </g>
     </g>
     <g id="text_16">
      <!-- 250 -->
      <g transform="translate(31.5125 103.559063)scale(0.1 -0.1)">
       <use xlink:href="#DejaVuSans-32"/>
       <use xlink:href="#DejaVuSans-35" x="63.623047"/>
       <use xlink:href="#DejaVuSans-30" x="127.246094"/>
      </g>
     </g>
    </g>
    <g id="ytick_7">
     <g id="line2d_31">
      <path d="M 57.6 60.614214 
L 414.72 60.614214 
" clip-path="url(#p827ddd2aa4)" style="fill: none; stroke: #b0b0b0; stroke-width: 0.8; stroke-linecap: square"/>
     </g>
     <g id="line2d_32">
      <g>
       <use xlink:href="#mbc5f675fe0" x="57.6" y="60.614214" style="stroke: #000000; stroke-width: 0.8"/>
      </g>
     </g>
     <g id="text_17">
      <!-- 300 -->
      <g transform="translate(31.5125 64.413432)scale(0.1 -0.1)">
       <use xlink:href="#DejaVuSans-33"/>
       <use xlink:href="#DejaVuSans-30" x="63.623047"/>
       <use xlink:href="#DejaVuSans-30" x="127.246094"/>
      </g>
     </g>
    </g>
    <g id="text_18">
     <!-- Intensity -->
     <g transform="translate(25.432812 196.2905)rotate(-90)scale(0.1 -0.1)">
      <defs>
       <path id="DejaVuSans-49" d="M 628 4666 
L 1259 4666 
L 1259 0 
L 628 0 
L 628 4666 
z
" transform="scale(0.015625)"/>
       <path id="DejaVuSans-6e" d="M 3513 2113 
L 3513 0 
L 2938 0 
L 2938 2094 
Q 2938 2591 2744 2837 
Q 2550 3084 2163 3084 
Q 1697 3084 1428 2787 
Q 1159 2491 1159 1978 
L 1159 0 
L 581 0 
L 581 3500 
L 1159 3500 
L 1159 2956 
Q 1366 3272 1645 3428 
Q 1925 3584 2291 3584 
Q 2894 3584 3203 3211 
Q 3513 2838 3513 2113 
z
" transform="scale(0.015625)"/>
       <path id="DejaVuSans-74" d="M 1172 4494 
L 1172 3500 
L 2356 3500 
L 2356 3053 
L 1172 3053 
L 1172 1153 
Q 1172 725 1289 603 
Q 1406 481 1766 481 
L 2356 481 
L 2356 0 
L 1766 0 
Q 1100 0 847 248 
Q 594 497 594 1153 
L 594 3053 
L 172 3053 
L 172 3500 
L 594 3500 
L 594 4494 
L 1172 4494 
z
" transform="scale(0.015625)"/>
       <path id="DejaVuSans-65" d="M 3597 1894 
L 3597 1613 
L 953 1613 
Q 991 1019 1311 708 
Q 1631 397 2203 397 
Q 2534 397 2845 478 
Q 3156 559 3463 722 
L 3463 178 
Q 3153 47 2828 -22 
Q 2503 -91 2169 -91 
Q 1331 -91 842 396 
Q 353 884 353 1716 
Q 353 2575 817 3079 
Q 1281 3584 2069 3584 
Q 2775 3584 3186 3129 
Q 3597 2675 3597 1894 
z
M 3022 2063 
Q 3016 2534 2758 2815 
Q 2500 3097 2075 3097 
Q 1594 3097 1305 2825 
Q 1016 2553 972 2059 
L 3022 2063 
z
" transform="scale(0.015625)"/>
       <path id="DejaVuSans-73" d="M 2834 3397 
L 2834 2853 
Q 2591 2978 2328 3040 
Q 2066 3103 1784 3103 
Q 1356 3103 1142 2972 
Q 928 2841 928 2578 
Q 928 2378 1081 2264 
Q 1234 2150 1697 2047 
L 1894 2003 
Q 2506 1872 2764 1633 
Q 3022 1394 3022 966 
Q 3022 478 2636 193 
Q 2250 -91 1575 -91 
Q 1294 -91 989 -36 
Q 684 19 347 128 
L 347 722 
Q 666 556 975 473 
Q 1284 391 1588 391 
Q 1994 391 2212 530 
Q 2431 669 2431 922 
Q 2431 1156 2273 1281 
Q 2116 1406 1581 1522 
L 1381 1569 
Q 847 1681 609 1914 
Q 372 2147 372 2553 
Q 372 3047 722 3315 
Q 1072 3584 1716 3584 
Q 2034 3584 2315 3537 
Q 2597 3491 2834 3397 
z
" transform="scale(0.015625)"/>
       <path id="DejaVuSans-69" d="M 603 3500 
L 1178 3500 
L 1178 0 
L 603 0 
L 603 3500 
z
M 603 4863 
L 1178 4863 
L 1178 4134 
L 603 4134 
L 603 4863 
z
" transform="scale(0.015625)"/>
       <path id="DejaVuSans-79" d="M 2059 -325 
Q 1816 -950 1584 -1140 
Q 1353 -1331 966 -1331 
L 506 -1331 
L 506 -850 
L 844 -850 
Q 1081 -850 1212 -737 
Q 1344 -625 1503 -206 
L 1606 56 
L 191 3500 
L 800 3500 
L 1894 763 
L 2988 3500 
L 3597 3500 
L 2059 -325 
z
" transform="scale(0.015625)"/>
      </defs>
      <use xlink:href="#DejaVuSans-49"/>
      <use xlink:href="#DejaVuSans-6e" x="29.492188"/>
      <use xlink:href="#DejaVuSans-74" x="92.871094"/>
      <use xlink:href="#DejaVuSans-65" x="132.080078"/>
      <use xlink:href="#DejaVuSans-6e" x="193.603516"/>
      <use xlink:href="#DejaVuSans-73" x="256.982422"/>
      <use xlink:href="#DejaVuSans-69" x="309.082031"/>
      <use xlink:href="#DejaVuSans-74" x="336.865234"/>
      <use xlink:href="#DejaVuSans-79" x="376.074219"/>
     </g>
    </g>
   </g>
   <g id="line2d_33">
    <path d="M 73.832727 295.488 
L 78.004538 295.488 
L 78.840524 293.922175 
L 79.676509 281.395573 
L 81.340364 239.901204 
L 82.176349 228.157515 
L 83.012335 228.940427 
L 83.84832 225.025864 
L 84.684305 232.072078 
L 85.520291 225.025864 
L 86.34816 221.894214 
L 87.184145 220.328388 
L 88.020131 209.367612 
L 88.856116 214.848 
L 89.692102 217.97965 
L 90.528087 212.499262 
L 91.355956 216.413825 
L 93.027927 228.940427 
L 93.863913 213.282175 
L 94.699898 232.85499 
L 95.535884 199.97266 
L 96.363753 217.97965 
L 97.199738 222.677126 
L 98.035724 222.677126 
L 98.871709 227.374602 
L 99.707695 227.374602 
L 100.535564 226.591689 
L 101.371549 246.164505 
L 102.207535 237.552466 
L 103.04352 237.552466 
L 103.879505 227.374602 
L 104.715491 229.72334 
L 105.54336 239.118291 
L 106.379345 223.460039 
L 107.215331 225.808777 
L 108.051316 227.374602 
L 108.887302 225.025864 
L 109.723287 230.506252 
L 110.551156 229.72334 
L 111.387142 212.499262 
L 112.223127 225.808777 
L 113.059113 222.677126 
L 113.895098 233.637903 
L 114.731084 206.235961 
L 115.558953 217.196738 
L 116.394938 222.677126 
L 117.230924 234.420816 
L 118.066909 241.467029 
L 118.902895 237.552466 
L 119.73888 237.552466 
L 120.566749 240.684117 
L 121.402735 244.59868 
L 122.23872 250.079068 
L 123.074705 242.249942 
L 123.910691 254.776544 
L 124.73856 254.776544 
L 125.574545 252.427806 
L 126.410531 238.335379 
L 127.246516 239.901204 
L 128.082502 253.210718 
L 128.918487 249.296155 
L 129.746356 263.388583 
L 130.582342 257.908194 
L 131.418327 250.079068 
L 132.254313 262.60567 
L 133.090298 255.559456 
L 133.926284 257.908194 
L 134.754153 253.210718 
L 135.590138 261.822757 
L 136.426124 248.513243 
L 137.262109 255.559456 
L 138.098095 252.427806 
L 138.93408 269.651883 
L 139.761949 253.210718 
L 140.597935 257.908194 
L 141.43392 261.039845 
L 142.269905 249.296155 
L 143.105891 258.691107 
L 143.941876 265.73732 
L 144.769745 260.256932 
L 145.605731 264.954408 
L 146.441716 250.079068 
L 147.277702 250.861981 
L 148.113687 256.342369 
L 148.941556 249.296155 
L 150.613527 249.296155 
L 151.449513 246.164505 
L 152.285498 242.249942 
L 153.121484 249.296155 
L 153.949353 252.427806 
L 154.785338 257.125282 
L 155.621324 257.908194 
L 156.457309 243.815767 
L 157.293295 255.559456 
L 158.12928 261.822757 
L 158.957149 253.210718 
L 159.793135 253.993631 
L 160.62912 249.296155 
L 161.465105 252.427806 
L 162.301091 258.691107 
L 163.137076 261.039845 
L 163.964945 258.691107 
L 164.800931 263.388583 
L 165.636916 263.388583 
L 166.472902 253.993631 
L 167.308887 270.434796 
L 168.144873 250.861981 
L 168.972742 262.60567 
L 169.808727 265.73732 
L 170.644713 265.73732 
L 171.480698 266.520233 
L 173.152669 266.520233 
L 173.980538 255.559456 
L 174.816524 250.079068 
L 175.652509 227.374602 
L 176.488495 220.328388 
L 178.152349 145.168777 
L 178.988335 124.030136 
L 179.82432 153.780816 
L 180.660305 207.018874 
L 181.496291 235.203728 
L 182.332276 256.342369 
L 183.160145 246.164505 
L 183.996131 264.171495 
L 184.832116 263.388583 
L 185.668102 268.086058 
L 186.504087 270.434796 
L 187.340073 256.342369 
L 188.167942 238.335379 
L 189.003927 226.591689 
L 189.839913 167.09033 
L 190.675898 70.009165 
L 191.511884 53.568 
L 193.175738 222.677126 
L 194.011724 265.73732 
L 194.847709 267.303146 
L 195.683695 271.217709 
L 196.51968 267.303146 
L 197.355665 270.434796 
L 198.183535 270.434796 
L 199.01952 275.132272 
L 199.855505 278.263922 
L 200.691491 280.61266 
L 201.527476 279.046835 
L 202.355345 274.349359 
L 203.191331 274.349359 
L 204.027316 277.48101 
L 204.863302 275.132272 
L 205.699287 281.395573 
L 206.535273 282.178485 
L 207.363142 280.61266 
L 208.199127 282.961398 
L 209.035113 278.263922 
L 209.871098 275.132272 
L 210.707084 272.783534 
L 211.543069 282.961398 
L 212.370938 286.093049 
L 213.206924 272.000621 
L 214.042909 277.48101 
L 214.878895 275.132272 
L 215.71488 272.000621 
L 216.550865 277.48101 
L 217.378735 280.61266 
L 218.21472 276.698097 
L 219.050705 271.217709 
L 219.886691 275.132272 
L 220.722676 251.644893 
L 222.386531 182.748583 
L 223.222516 164.741592 
L 224.058502 210.933437 
L 224.894487 243.815767 
L 225.730473 267.303146 
L 226.558342 277.48101 
L 227.394327 283.744311 
L 228.230313 275.915184 
L 229.066298 279.046835 
L 229.902284 269.651883 
L 230.738269 278.263922 
L 231.566138 274.349359 
L 232.402124 273.566447 
L 233.238109 279.046835 
L 234.074095 279.829748 
L 234.91008 272.000621 
L 235.746065 277.48101 
L 236.573935 275.915184 
L 238.245905 242.249942 
L 239.081891 201.538485 
L 239.917876 124.813049 
L 241.581731 225.808777 
L 242.417716 259.474019 
L 243.253702 275.132272 
L 244.089687 279.046835 
L 244.925673 273.566447 
L 245.761658 275.132272 
L 246.589527 274.349359 
L 247.425513 275.132272 
L 248.261498 270.434796 
L 249.097484 280.61266 
L 249.933469 279.046835 
L 250.761338 279.829748 
L 251.597324 279.829748 
L 252.433309 285.310136 
L 253.269295 279.046835 
L 254.10528 275.132272 
L 254.941265 279.046835 
L 255.769135 253.210718 
L 256.60512 250.079068 
L 257.441105 255.559456 
L 258.277091 259.474019 
L 259.113076 274.349359 
L 259.949062 275.132272 
L 260.776931 277.48101 
L 261.612916 277.48101 
L 262.448902 281.395573 
L 263.284887 282.961398 
L 264.120873 287.658874 
L 264.956858 280.61266 
L 265.784727 275.915184 
L 266.620713 278.263922 
L 267.456698 275.915184 
L 268.292684 275.915184 
L 269.128669 272.783534 
L 269.964655 273.566447 
L 270.792524 273.566447 
L 271.628509 276.698097 
L 272.464495 283.744311 
L 273.30048 279.046835 
L 274.136465 284.527223 
L 274.964335 272.000621 
L 275.80032 275.915184 
L 277.472291 246.164505 
L 278.308276 239.901204 
L 279.144262 244.59868 
L 279.972131 272.000621 
L 280.808116 271.217709 
L 281.644102 282.178485 
L 282.480087 281.395573 
L 283.316073 276.698097 
L 284.152058 269.651883 
L 284.979927 272.783534 
L 285.815913 260.256932 
L 286.651898 274.349359 
L 287.487884 275.132272 
L 288.323869 278.263922 
L 289.159855 284.527223 
L 289.987724 276.698097 
L 290.823709 279.046835 
L 291.659695 280.61266 
L 292.49568 278.263922 
L 293.331665 284.527223 
L 294.167651 278.263922 
L 294.99552 281.395573 
L 295.831505 281.395573 
L 296.667491 274.349359 
L 297.503476 283.744311 
L 298.339462 284.527223 
L 299.167331 279.046835 
L 300.003316 278.263922 
L 300.839302 280.61266 
L 301.675287 278.263922 
L 302.511273 286.875961 
L 303.347258 281.395573 
L 304.175127 284.527223 
L 305.011113 284.527223 
L 305.847098 276.698097 
L 306.683084 283.744311 
L 307.519069 279.046835 
L 308.355055 266.520233 
L 309.182924 264.171495 
L 310.018909 232.85499 
L 310.854895 221.894214 
L 311.69088 243.815767 
L 312.526865 255.559456 
L 314.19072 280.61266 
L 315.026705 279.829748 
L 315.862691 278.263922 
L 316.698676 277.48101 
L 317.534662 278.263922 
L 318.370647 280.61266 
L 319.198516 285.310136 
L 320.034502 275.132272 
L 320.870487 276.698097 
L 321.706473 280.61266 
L 322.542458 276.698097 
L 323.378444 282.178485 
L 324.206313 284.527223 
L 325.042298 282.961398 
L 325.878284 283.744311 
L 326.714269 279.046835 
L 327.550255 275.132272 
L 328.378124 275.132272 
L 329.214109 281.395573 
L 330.050095 282.961398 
L 330.88608 275.132272 
L 331.722065 272.783534 
L 332.558051 268.086058 
L 333.38592 261.039845 
L 334.221905 258.691107 
L 335.057891 260.256932 
L 335.893876 265.73732 
L 336.729862 264.171495 
L 337.565847 259.474019 
L 338.393716 253.210718 
L 339.229702 240.684117 
L 340.065687 250.079068 
L 340.901673 269.651883 
L 341.737658 279.829748 
L 342.573644 278.263922 
L 343.401513 279.046835 
L 344.237498 284.527223 
L 345.073484 277.48101 
L 345.909469 279.046835 
L 346.745455 287.658874 
L 347.58144 280.61266 
L 348.409309 281.395573 
L 349.245295 270.434796 
L 350.08128 285.310136 
L 352.58112 282.961398 
L 353.417105 279.046835 
L 354.253091 284.527223 
L 355.089076 279.829748 
L 355.925062 280.61266 
L 356.761047 282.961398 
L 357.588916 281.395573 
L 358.424902 278.263922 
L 359.260887 282.178485 
L 360.096873 285.310136 
L 360.932858 286.093049 
L 361.768844 283.744311 
L 362.596713 286.875961 
L 364.268684 257.125282 
L 365.104669 257.908194 
L 365.940655 262.60567 
L 366.77664 271.217709 
L 367.604509 278.263922 
L 369.27648 286.093049 
L 370.112465 283.744311 
L 370.948451 282.178485 
L 371.784436 287.658874 
L 372.612305 282.961398 
L 373.448291 284.527223 
L 374.284276 281.395573 
L 375.120262 279.829748 
L 375.956247 277.48101 
L 376.784116 279.829748 
L 377.620102 284.527223 
L 378.456087 285.310136 
L 379.292073 282.961398 
L 380.128058 278.263922 
L 380.964044 288.441786 
L 381.791913 286.093049 
L 382.627898 282.961398 
L 383.463884 287.658874 
L 384.299869 285.310136 
L 385.135855 285.310136 
L 385.97184 282.961398 
L 386.799709 290.007612 
L 388.47168 282.178485 
L 389.307665 288.441786 
L 390.143651 283.744311 
L 390.979636 287.658874 
L 391.807505 286.093049 
L 392.643491 285.310136 
L 393.479476 281.395573 
L 394.315462 272.000621 
L 395.151447 275.132272 
L 395.987433 277.48101 
L 396.815302 276.698097 
L 397.651287 277.48101 
L 398.487273 280.61266 
L 398.487273 280.61266 
" clip-path="url(#p827ddd2aa4)" style="fill: none; stroke: #1f77b4; stroke-width: 1.5; stroke-linecap: square"/>
   </g>
   <g id="patch_3">
    <path d="M 57.6 307.584 
L 57.6 41.472 
" style="fill: none; stroke: #000000; stroke-width: 0.8; stroke-linejoin: miter; stroke-linecap: square"/>
   </g>
   <g id="patch_4">
    <path d="M 414.72 307.584 
L 414.72 41.472 
" style="fill: none; stroke: #000000; stroke-width: 0.8; stroke-linejoin: miter; stroke-linecap: square"/>
   </g>
   <g id="patch_5">
    <path d="M 57.6 307.584 
L 414.72 307.584 
" style="fill: none; stroke: #000000; stroke-width: 0.8; stroke-linejoin: miter; stroke-linecap: square"/>
   </g>
   <g id="patch_6">
    <path d="M 57.6 41.472 
L 414.72 41.472 
" style="fill: none; stroke: #000000; stroke-width: 0.8; stroke-linejoin: miter; stroke-linecap: square"/>
   </g>
   <g id="text_19">
    <!-- Unknown sample -->
    <g transform="translate(184.587187 35.472)scale(0.12 -0.12)">
     <defs>
      <path id="DejaVuSans-55" d="M 556 4666 
L 1191 4666 
L 1191 1831 
Q 1191 1081 1462 751 
Q 1734 422 2344 422 
Q 2950 422 3222 751 
Q 3494 1081 3494 1831 
L 3494 4666 
L 4128 4666 
L 4128 1753 
Q 4128 841 3676 375 
Q 3225 -91 2344 -91 
Q 1459 -91 1007 375 
Q 556 841 556 1753 
L 556 4666 
z
" transform="scale(0.015625)"/>
      <path id="DejaVuSans-6b" d="M 581 4863 
L 1159 4863 
L 1159 1991 
L 2875 3500 
L 3609 3500 
L 1753 1863 
L 3688 0 
L 2938 0 
L 1159 1709 
L 1159 0 
L 581 0 
L 581 4863 
z
" transform="scale(0.015625)"/>
      <path id="DejaVuSans-6f" d="M 1959 3097 
Q 1497 3097 1228 2736 
Q 959 2375 959 1747 
Q 959 1119 1226 758 
Q 1494 397 1959 397 
Q 2419 397 2687 759 
Q 2956 1122 2956 1747 
Q 2956 2369 2687 2733 
Q 2419 3097 1959 3097 
z
M 1959 3584 
Q 2709 3584 3137 3096 
Q 3566 2609 3566 1747 
Q 3566 888 3137 398 
Q 2709 -91 1959 -91 
Q 1206 -91 779 398 
Q 353 888 353 1747 
Q 353 2609 779 3096 
Q 1206 3584 1959 3584 
z
" transform="scale(0.015625)"/>
      <path id="DejaVuSans-77" d="M 269 3500 
L 844 3500 
L 1563 769 
L 2278 3500 
L 2956 3500 
L 3675 769 
L 4391 3500 
L 4966 3500 
L 4050 0 
L 3372 0 
L 2619 2869 
L 1863 0 
L 1184 0 
L 269 3500 
z
" transform="scale(0.015625)"/>
      <path id="DejaVuSans-20" transform="scale(0.015625)"/>
      <path id="DejaVuSans-61" d="M 2194 1759 
Q 1497 1759 1228 1600 
Q 959 1441 959 1056 
Q 959 750 1161 570 
Q 1363 391 1709 391 
Q 2188 391 2477 730 
Q 2766 1069 2766 1631 
L 2766 1759 
L 2194 1759 
z
M 3341 1997 
L 3341 0 
L 2766 0 
L 2766 531 
Q 2569 213 2275 61 
Q 1981 -91 1556 -91 
Q 1019 -91 701 211 
Q 384 513 384 1019 
Q 384 1609 779 1909 
Q 1175 2209 1959 2209 
L 2766 2209 
L 2766 2266 
Q 2766 2663 2505 2880 
Q 2244 3097 1772 3097 
Q 1472 3097 1187 3025 
Q 903 2953 641 2809 
L 641 3341 
Q 956 3463 1253 3523 
Q 1550 3584 1831 3584 
Q 2591 3584 2966 3190 
Q 3341 2797 3341 1997 
z
" transform="scale(0.015625)"/>
      <path id="DejaVuSans-6d" d="M 3328 2828 
Q 3544 3216 3844 3400 
Q 4144 3584 4550 3584 
Q 5097 3584 5394 3201 
Q 5691 2819 5691 2113 
L 5691 0 
L 5113 0 
L 5113 2094 
Q 5113 2597 4934 2840 
Q 4756 3084 4391 3084 
Q 3944 3084 3684 2787 
Q 3425 2491 3425 1978 
L 3425 0 
L 2847 0 
L 2847 2094 
Q 2847 2600 2669 2842 
Q 2491 3084 2119 3084 
Q 1678 3084 1418 2786 
Q 1159 2488 1159 1978 
L 1159 0 
L 581 0 
L 581 3500 
L 1159 3500 
L 1159 2956 
Q 1356 3278 1631 3431 
Q 1906 3584 2284 3584 
Q 2666 3584 2933 3390 
Q 3200 3197 3328 2828 
z
" transform="scale(0.015625)"/>
      <path id="DejaVuSans-70" d="M 1159 525 
L 1159 -1331 
L 581 -1331 
L 581 3500 
L 1159 3500 
L 1159 2969 
Q 1341 3281 1617 3432 
Q 1894 3584 2278 3584 
Q 2916 3584 3314 3078 
Q 3713 2572 3713 1747 
Q 3713 922 3314 415 
Q 2916 -91 2278 -91 
Q 1894 -91 1617 61 
Q 1341 213 1159 525 
z
M 3116 1747 
Q 3116 2381 2855 2742 
Q 2594 3103 2138 3103 
Q 1681 3103 1420 2742 
Q 1159 2381 1159 1747 
Q 1159 1113 1420 752 
Q 1681 391 2138 391 
Q 2594 391 2855 752 
Q 3116 1113 3116 1747 
z
" transform="scale(0.015625)"/>
      <path id="DejaVuSans-6c" d="M 603 4863 
L 1178 4863 
L 1178 0 
L 603 0 
L 603 4863 
z
" transform="scale(0.015625)"/>
     </defs>
     <use xlink:href="#DejaVuSans-55"/>
     <use xlink:href="#DejaVuSans-6e" x="73.193359"/>
     <use xlink:href="#DejaVuSans-6b" x="136.572266"/>
     <use xlink:href="#DejaVuSans-6e" x="194.482422"/>
     <use xlink:href="#DejaVuSans-6f" x="257.861328"/>
     <use xlink:href="#DejaVuSans-77" x="319.042969"/>
     <use xlink:href="#DejaVuSans-6e" x="400.830078"/>
     <use xlink:href="#DejaVuSans-20" x="464.208984"/>
     <use xlink:href="#DejaVuSans-73" x="495.996094"/>
     <use xlink:href="#DejaVuSans-61" x="548.095703"/>
     <use xlink:href="#DejaVuSans-6d" x="609.375"/>
     <use xlink:href="#DejaVuSans-70" x="706.787109"/>
     <use xlink:href="#DejaVuSans-6c" x="770.263672"/>
     <use xlink:href="#DejaVuSans-65" x="798.046875"/>
    </g>
   </g>
  </g>
 </g>
 <defs>
  <clipPath id="p827ddd2aa4">
   <rect x="57.6" y="41.472" width="357.12" height="266.112"/>
  </clipPath>
 </defs>
</svg>
